<?xml version="1.0" encoding="utf-8"?>
<!-- Generator: Adobe Illustrator 27.0.0, SVG Export Plug-In . SVG Version: 6.00 Build 0)  -->
<svg version="1.1" id="Vrstva_1" xmlns="http://www.w3.org/2000/svg" xmlns:xlink="http://www.w3.org/1999/xlink" x="0px" y="0px"
	 viewBox="0 0 234 234" style="enable-background:new 0 0 234 234;" xml:space="preserve">
<style type="text/css">
	.st0{fill:#FFFFFF;}
</style>
<g>
	<path class="st0" d="M133.8,85.7c2.9,1.6,5.5,3.5,7.9,5.8c2.8-3.2,6.5-6.9,11.5-10c9.2-5.8,24.2-10.8,45.9-6
		C193.3,64,185.2,54,175.4,45.9C150.3,48.4,138.1,74,133.8,85.7L133.8,85.7z"/>
	<path class="st0" d="M152,123.3c-0.6,3.3-1.6,6.4-3,9.3c3.9,1.6,8.6,4.1,13.1,7.9c8.3,7,17.8,19.6,19.9,41.8
		c8.9-8.9,16.1-19.6,20.8-31.6C192.6,127.4,164.3,123.8,152,123.3L152,123.3z"/>
	<path class="st0" d="M149.9,103.6c0.7,1.8,1.3,3.7,1.8,5.7c5.5,0.2,13.8,0.9,22.8,3.2c14.2,3.8,25.4,10.6,33.2,19.9
		c0.9-5,1.3-10.2,1.3-15.5c0-8.7-1.2-17.2-3.5-25.2C170,79.5,154.5,96.7,149.9,103.6L149.9,103.6z"/>
	<path class="st0" d="M153,151.2c-5-4.2-10.1-6.1-13.2-7c-1.5,1.3-3.1,2.4-4.8,3.4c1.5,5.3,3.5,13.4,4,22.7
		c0.8,14.7-2.2,27.4-8.7,37.8c13.9-2,26.9-7.2,38-14.7C168.7,174.1,163.6,160,153,151.2L153,151.2z"/>
	<path class="st0" d="M138.6,117c0-11.9-9.7-21.6-21.6-21.6s-21.6,9.7-21.6,21.6c0,11.9,9.7,21.6,21.6,21.6S138.6,128.9,138.6,117
		L138.6,117z"/>
	<path class="st0" d="M117,152.5c-1.7,0-3.3-0.1-5-0.4c-0.3,4.2-1.2,9.4-3.4,14.9c-4,10.1-13.2,23-33.6,31.8
		c11.1,5.7,23.4,9.2,36.5,10c19-16.8,13.7-44.8,10.3-56.7C120.2,152.4,118.6,152.5,117,152.5L117,152.5z"/>
	<path class="st0" d="M60.2,189.4c36-11,38.3-34,38-42.3c-1.7-1.1-3.3-2.2-4.8-3.6c-4.5,3.1-11.7,7.4-20.4,10.8
		c-8.7,3.4-17.2,5.1-25.3,5.1c-4.6,0-9-0.5-13.3-1.6C40.6,170.2,49.5,181,60.2,189.4L60.2,189.4z"/>
	<path class="st0" d="M56.8,29.7c0.4-0.3,0.8-0.6,1.3-0.9C74.9,17.6,95.1,11,116.9,10.9c0,0,0,0,0,0c0,0,0,0,0.1,0
		c24.2,0,46.5,8.1,64.3,21.8c0.5,0.3,0.9,0.6,1.3,1C207.2,53.2,223,83.3,223,117c0,12.6-2.2,24.7-6.3,35.9c0,0,0,0,0,0
		c-7.2,19.9-20.1,37-36.8,49.3c-0.4,0.3-0.8,0.6-1.2,0.9C161.3,215.7,140,223,117,223c-1,0-2.1,0-3.1,0c0,0,0,0,0,0
		c-0.1,0-0.1,0-0.2,0c-21.7-0.7-41.8-7.9-58.4-19.8c-0.4-0.3-0.9-0.6-1.2-0.9c-26.1-19.3-43.1-50.4-43.1-85.3
		C10.9,80.9,29.1,48.9,56.8,29.7L56.8,29.7z M117,234c64.5,0,117-52.5,117-117C234,52.5,181.5,0,117,0C52.5,0,0,52.5,0,117
		C0,181.5,52.5,234,117,234L117,234z"/>
	<path class="st0" d="M85,132.4c-1.4-2.9-2.4-6-3-9.3c-3.3,0.8-7.4,1.4-11.9,1.4c-1.1,0-2.2,0-3.3-0.1c-10.8-0.7-25.9-5.4-40.7-22.1
		c-0.8,4.8-1.2,9.7-1.2,14.7c0,8,1,15.7,2.9,23.1C49.6,152.9,74.6,139.3,85,132.4L85,132.4z"/>
	<path class="st0" d="M92.4,91.3c2.3-2.2,5-4.2,7.9-5.7c-2.2-3.6-4.5-8.3-6-14.1C91.7,61,91.5,45.2,102.9,26
		C90,28,78,32.7,67.4,39.4C62,64,82.7,83.6,92.4,91.3L92.4,91.3z"/>
	<path class="st0" d="M82.5,108.4c0.5-1.9,1.1-3.8,1.9-5.6c-4.4-3.4-10.7-8.8-16.6-16c-9.2-11.4-14.3-23.4-15.2-35.6
		c-9.7,9.5-17.4,21.2-22.1,34.2C52.1,116.2,74.7,111.3,82.5,108.4L82.5,108.4z"/>
	<path class="st0" d="M114.5,81.5c0.8-0.1,1.7-0.1,2.5-0.1c1.2,0,2.3,0.1,3.4,0.2c1.9-5.2,5.1-12.9,10.1-20.7
		c8-12.3,17.9-20.9,29.2-25.4c-11.8-6.2-25.2-10-39.4-10.5c-11.6,15.4-15.8,29.9-12.4,43.1C109.5,74.5,112.5,79,114.5,81.5
		L114.5,81.5z"/>
</g>
<g>
	<path class="st0" d="M273.9,342.9c-11,0-31.9-1.8-42.5-2.8c-1.1-3.3-4.3-5.7-8-5.7H104.8c-3.5,0-6.6,2.2-7.9,5.3
		c-1.2-0.4-2.7-0.6-4.2-0.3l-24,4.1c-5.1,0.9-9.2,5.8-9.2,10.9v25.4h-7.9c-4.7,0-8.5,3.8-8.5,8.5v6.3H1.4v27.6h41.8v6.3
		c0,4.7,3.8,8.5,8.5,8.5h7.9v25.4c0,5.1,4.1,10,9.2,10.9l24,4.1c1.5,0.3,2.9,0.1,4.2-0.3c1.3,3.1,4.3,5.3,7.9,5.3h17.1
		c-0.3,0.9-0.5,1.8-0.5,2.8v11.9c0,4.7-3.8,8.8-8.4,9.2l-41.4,3.6c-4.6,0.4-8.4,4.5-8.4,9.2v4.2c0,4.7,3.8,8.5,8.5,8.5h183.8
		c4.7,0,8.5-3.8,8.5-8.5v-4.2c0-4.7-3.8-8.8-8.4-9.2l-41.4-3.6c-4.6-0.4-8.4-4.5-8.4-9.2v-11.9c0-1-0.2-1.9-0.5-2.8h18.3
		c3.7,0,6.9-2.4,8-5.8c10.5-1,30.9-2.7,42.5-2.7C306.6,473.9,306.6,342.9,273.9,342.9z M179.3,485.2v11.9c0,4.7-3.8,8.5-8.5,8.5
		h-14.7c-4.7,0-8.5-3.8-8.5-8.5v-11.9c0-1-0.2-1.9-0.5-2.8h32.6C179.5,483.3,179.3,484.2,179.3,485.2z M224.8,465.3
		c-0.5-0.1-0.9-0.1-1.4-0.1H104.8c-1,0-1.9,0.2-2.8,0.5v-16.4c0.9,0.3,1.8,0.5,2.8,0.5h118.6c0.5,0,0.9,0,1.4-0.1V465.3z
		 M224.8,432.6c-0.5-0.1-0.9-0.1-1.4-0.1H104.8c-1,0-1.9,0.2-2.8,0.5v-16.4c0.9,0.3,1.8,0.5,2.8,0.5h118.6c0.5,0,0.9,0,1.4-0.1
		V432.6z M224.8,399.9c-0.5-0.1-0.9-0.1-1.4-0.1H104.8c-1,0-1.9,0.2-2.8,0.5v-16.4c0.9,0.3,1.8,0.5,2.8,0.5h118.6
		c0.5,0,0.9,0,1.4-0.1V399.9z M224.8,367.2c-0.5-0.1-0.9-0.1-1.4-0.1H104.8c-1,0-1.9,0.2-2.8,0.5v-16.4c0.9,0.3,1.8,0.5,2.8,0.5
		h118.6c0.5,0,0.9,0,1.4-0.1V367.2z"/>
</g>
<path class="st0" d="M490.6,59.7l-42.8,25.8c-5.1-1.5-10.4-2.5-15.9-2.8l59.9-36.2c-0.9,3-1.4,6.3-1.4,9.6
	C490.4,57.3,490.4,58.5,490.6,59.7z M471.1,152.1c0,23.9-19.4,43.3-43.3,43.3c-23.9,0-43.3-19.4-43.3-43.3
	c0-23.9,19.4-43.3,43.3-43.3C451.7,108.8,471.1,128.2,471.1,152.1z M405.3,152.1c0-2.1-1.7-3.8-3.8-3.8c-2.1,0-3.8,1.7-3.8,3.8
	c0,2.1,1.7,3.8,3.8,3.8C403.5,155.9,405.3,154.2,405.3,152.1z M416.5,171.6c-1.8-1.1-4.2-0.4-5.3,1.4c-1.1,1.8-0.4,4.2,1.4,5.3
	c1.8,1.1,4.2,0.4,5.3-1.4C419,175,418.4,172.7,416.5,171.6z M417.9,127.3c-1.1-1.8-3.4-2.5-5.3-1.4c-1.8,1.1-2.5,3.4-1.4,5.3
	c1.1,1.8,3.4,2.5,5.2,1.4C418.4,131.5,419,129.1,417.9,127.3z M437,152.3l-4.3-8l-9.1-0.3l-4.8,7.8l4.3,8l9.1,0.3L437,152.3z
	 M444.4,173c-1.1-1.8-3.4-2.5-5.2-1.4c-1.8,1.1-2.5,3.4-1.4,5.3c1.1,1.8,3.4,2.5,5.2,1.4C444.8,177.2,445.4,174.9,444.4,173z
	 M443,125.9c-1.8-1.1-4.2-0.4-5.3,1.4c-1.1,1.8-0.4,4.2,1.4,5.3c1.8,1.1,4.2,0.4,5.3-1.4C445.4,129.3,444.8,126.9,443,125.9z
	 M458.1,152.1c0-2.1-1.7-3.8-3.8-3.8c-2.1,0-3.8,1.7-3.8,3.8c0,2.1,1.7,3.8,3.8,3.8C456.4,155.9,458.1,154.2,458.1,152.1z
	 M533.7,77.4l-44,76.2c-0.8,33.5-28.2,60.4-61.9,60.4c-34.2,0-61.9-27.7-61.9-61.9c0-34.2,27.7-61.9,61.9-61.9
	c28.7,0,52.8,19.5,59.8,46l32.5-56.9c-11.3-1.7-19.9-11.4-19.9-23.2c0-13,10.5-23.5,23.5-23.5s23.5,10.5,23.5,23.5
	C547.3,65.6,541.7,73.7,533.7,77.4z M519.2,64h9.1l4.6-7.9l-4.6-7.9h-9.1l-4.6,7.9L519.2,64z M475.5,152.1
	c0-26.3-21.4-47.7-47.7-47.7c-26.3,0-47.7,21.4-47.7,47.7c0,26.3,21.4,47.7,47.7,47.7C454.1,199.8,475.5,178.4,475.5,152.1z"/>
</svg>
