<?xml version="1.0" encoding="utf-8"?>
<!-- Generator: Adobe Illustrator 27.0.0, SVG Export Plug-In . SVG Version: 6.00 Build 0)  -->
<svg version="1.1" id="Vrstva_1" xmlns="http://www.w3.org/2000/svg" xmlns:xlink="http://www.w3.org/1999/xlink" x="0px" y="0px"
	 viewBox="0 0 234 234" style="enable-background:new 0 0 234 234;" xml:space="preserve">
<style type="text/css">
	.st0{fill:#C9C9C9;}
</style>
<g>
	<path class="st0" d="M133.8,85.7c2.9,1.6,5.5,3.5,7.9,5.8c2.8-3.2,6.5-6.9,11.5-10c9.2-5.8,24.2-10.8,45.9-6
		C193.3,64,185.2,54,175.4,45.9C150.3,48.4,138.1,74,133.8,85.7L133.8,85.7z"/>
	<path class="st0" d="M152,123.3c-0.6,3.3-1.6,6.4-3,9.3c3.9,1.6,8.6,4.1,13.1,7.9c8.3,7,17.8,19.6,19.9,41.8
		c8.9-8.9,16.1-19.6,20.8-31.6C192.6,127.4,164.3,123.8,152,123.3L152,123.3z"/>
	<path class="st0" d="M149.9,103.6c0.7,1.8,1.3,3.7,1.8,5.7c5.5,0.2,13.8,0.9,22.8,3.2c14.2,3.8,25.4,10.6,33.2,19.9
		c0.9-5,1.3-10.2,1.3-15.5c0-8.7-1.2-17.2-3.5-25.2C170,79.5,154.5,96.7,149.9,103.6L149.9,103.6z"/>
	<path class="st0" d="M153,151.2c-5-4.2-10.1-6.1-13.2-7c-1.5,1.3-3.1,2.4-4.8,3.4c1.5,5.3,3.5,13.4,4,22.7
		c0.8,14.7-2.2,27.4-8.7,37.8c13.9-2,26.9-7.2,38-14.7C168.7,174.1,163.6,160,153,151.2L153,151.2z"/>
	<path class="st0" d="M138.6,117c0-11.9-9.7-21.6-21.6-21.6s-21.6,9.7-21.6,21.6s9.7,21.6,21.6,21.6S138.6,128.9,138.6,117
		L138.6,117z"/>
	<path class="st0" d="M117,152.5c-1.7,0-3.3-0.1-5-0.4c-0.3,4.2-1.2,9.4-3.4,14.9c-4,10.1-13.2,23-33.6,31.8
		c11.1,5.7,23.4,9.2,36.5,10c19-16.8,13.7-44.8,10.3-56.7C120.2,152.4,118.6,152.5,117,152.5L117,152.5z"/>
	<path class="st0" d="M60.2,189.4c36-11,38.3-34,38-42.3c-1.7-1.1-3.3-2.2-4.8-3.6c-4.5,3.1-11.7,7.4-20.4,10.8
		c-8.7,3.4-17.2,5.1-25.3,5.1c-4.6,0-9-0.5-13.3-1.6C40.6,170.2,49.5,181,60.2,189.4L60.2,189.4z"/>
	<path class="st0" d="M56.8,29.7c0.4-0.3,0.8-0.6,1.3-0.9c16.8-11.2,37-17.8,58.8-17.9l0,0c0,0,0,0,0.1,0c24.2,0,46.5,8.1,64.3,21.8
		c0.5,0.3,0.9,0.6,1.3,1C207.2,53.2,223,83.3,223,117c0,12.6-2.2,24.7-6.3,35.9l0,0c-7.2,19.9-20.1,37-36.8,49.3
		c-0.4,0.3-0.8,0.6-1.2,0.9C161.3,215.7,140,223,117,223c-1,0-2.1,0-3.1,0l0,0c-0.1,0-0.1,0-0.2,0c-21.7-0.7-41.8-7.9-58.4-19.8
		c-0.4-0.3-0.9-0.6-1.2-0.9C28,183,11,151.9,11,117C10.9,80.9,29.1,48.9,56.8,29.7L56.8,29.7z M117,234c64.5,0,117-52.5,117-117
		S181.5,0,117,0S0,52.5,0,117S52.5,234,117,234L117,234z"/>
	<path class="st0" d="M85,132.4c-1.4-2.9-2.4-6-3-9.3c-3.3,0.8-7.4,1.4-11.9,1.4c-1.1,0-2.2,0-3.3-0.1c-10.8-0.7-25.9-5.4-40.7-22.1
		c-0.8,4.8-1.2,9.7-1.2,14.7c0,8,1,15.7,2.9,23.1C49.6,152.9,74.6,139.3,85,132.4L85,132.4z"/>
	<path class="st0" d="M92.4,91.3c2.3-2.2,5-4.2,7.9-5.7c-2.2-3.6-4.5-8.3-6-14.1C91.7,61,91.5,45.2,102.9,26
		C90,28,78,32.7,67.4,39.4C62,64,82.7,83.6,92.4,91.3L92.4,91.3z"/>
	<path class="st0" d="M82.5,108.4c0.5-1.9,1.1-3.8,1.9-5.6c-4.4-3.4-10.7-8.8-16.6-16c-9.2-11.4-14.3-23.4-15.2-35.6
		c-9.7,9.5-17.4,21.2-22.1,34.2C52.1,116.2,74.7,111.3,82.5,108.4L82.5,108.4z"/>
	<path class="st0" d="M114.5,81.5c0.8-0.1,1.7-0.1,2.5-0.1c1.2,0,2.3,0.1,3.4,0.2c1.9-5.2,5.1-12.9,10.1-20.7
		c8-12.3,17.9-20.9,29.2-25.4c-11.8-6.2-25.2-10-39.4-10.5c-11.6,15.4-15.8,29.9-12.4,43.1C109.5,74.5,112.5,79,114.5,81.5
		L114.5,81.5z"/>
</g>
</svg>
