<?xml version="1.0" encoding="utf-8"?>
<!-- Generator: Adobe Illustrator 27.0.0, SVG Export Plug-In . SVG Version: 6.00 Build 0)  -->
<svg version="1.1" id="레이어_1" xmlns="http://www.w3.org/2000/svg" xmlns:xlink="http://www.w3.org/1999/xlink" x="0px"
	 y="0px" viewBox="0 0 391.2 97.6" style="enable-background:new 0 0 391.2 97.6;" xml:space="preserve">
<style type="text/css">
	.st0{fill:#fff;}
	.st1{fill:#E94816;}
	.st2{fill:#217CB3;}
	.st3{fill:#5BA532;}
	.st4{fill:url(#SVGID_1_);}
	.st5{fill:url(#SVGID_00000089541883729767222040000007200534619120888494_);}
	.st6{fill:url(#SVGID_00000068646382250552556100000006230105181332971667_);}

	.font{fill:#fff;}
</style>
<g>
	<g class="font">
		<g>
			<g>
				<path d="M353.7,22c0,0,4.8-0.3,4.8,7v29.9c0,0,0,1.2,1.1,1.2h5.4c0,0,1.1-0.1,1.1-1.2V27.1c0,0,0.5-12.3-12.6-12.3
					c-13,0-12.4,12.3-12.4,12.3v31.9c0,0,0,1.2,1.1,1.2h5.8c0,0,1,0.1,1-1.2V29.3C349,29.3,348.5,22,353.7,22z"/>
				<path d="M110.5,19c2.8,2.4,4.3,5.5,4.3,9.1c0,3.6-1.4,6.6-4.3,9c-2.6,2.3-5.7,3.4-9.2,3.4c-3.6,0-6.7-1.1-9.3-3.4
					c-2.8-2.4-4.2-5.4-4.2-9c0-3.7,1.4-6.7,4.2-9.1c2.6-2.3,5.8-3.4,9.3-3.4C104.8,15.6,107.8,16.7,110.5,19z M97.1,24.1
					c-1.2,1.1-1.8,2.5-1.8,4.1c0,1.6,0.6,2.9,1.8,4c1.1,1,2.5,1.6,4.1,1.6c1.5,0,2.8-0.5,4-1.6c1.2-1.1,1.8-2.4,1.8-4
					c0-1.6-0.6-3-1.8-4.1c-1.1-1-2.5-1.6-4-1.6C99.7,22.5,98.3,23,97.1,24.1z M131.9,42.2h-5.8c0,0-0.8,0.1-0.8-0.9V16.6
					c0,0,0-0.9,0.9-0.9h5.7c1,0,0.9,0.9,0.9,0.9v24.7C132.9,42.3,131.9,42.2,131.9,42.2z M131.9,60.9H92.3c-1.2,0-2.1-0.3-2.6-0.8
					c-0.6-0.6-1-1.7-1-3.2V45.4c0,0,0-1.1,0.9-1.1h5.7c0.9,0,0.9,1,0.9,1v8.9h35.7c1.2,0,1,1,1,1v4.5
					C132.9,60.9,131.9,60.9,131.9,60.9z"/>
				<path d="M164.4,40.6c-2.5-0.3-4.9-1.1-7.1-2.4c-2.5-1.5-4.4-3.5-5.7-5.8c-1.4,2.4-3.4,4.3-6.1,5.9c-2.2,1.2-4.4,2-6.7,2.3
					c-0.9,0.1-1-0.9-1-0.9v-5.1c0,0,0-1,0.9-1.2c2.5-0.5,4.4-1.5,5.8-2.9c1.3-1.4,2.2-3.3,2.6-5.8h-8.6c0,0-0.9,0-0.9-1V19
					c0,0,0-0.9,0.9-0.9h9.1V15c0,0-0.1-1,0.9-1h6.1c1,0,0.9,1,0.9,1v3.2h8.8c1,0,0.9,0.9,0.9,0.9v4.7c0,1-0.9,1-0.9,1h-8.5
					c0.4,2.4,1.3,4.4,2.7,5.8c1.4,1.4,3.3,2.4,5.9,2.9c0,0,0.8,0.1,0.9,1.2v5.2C165.3,39.7,165.3,40.7,164.4,40.6z M183,16.6v24.7
					c0,1-1.1,0.9-1.1,0.9h-5.4c0,0-1,0.1-1-0.9v-9.6h-5.6c0,0-1-0.1-1-1.1v-4.5c0,0-0.1-1,1-1h5.6v-8.6c0,0-0.1-1,1-1h5.5
					C181.9,15.6,183,15.6,183,16.6z"/>
				<path d="M232.3,60.7h-43.6c-1,0-0.9-1.1-0.9-1.1v-4.4c0,0-0.1-1.1,0.9-1.1h7.5V36c0,0,0-1,1-1h5.3c0,0,1.1-0.1,1.1,1v18h7.4V36
					c0,0-0.1-1,1-1h5.3c1.1,0,1.1,1.1,1.1,1.1v18h13.8c0,0,1.1,0,1.1,1.2v4.4C233.4,60.7,232.3,60.7,232.3,60.7z M230.7,44.3h-5.6
					c-0.9,0-1-1-1-1V23.5h-33.7c-0.9,0-0.9-1-0.9-1v-5c0,0,0-1,0.8-1h38c0,0,3.4-0.2,3.4,3.4v23.5C231.6,44.3,230.7,44.3,230.7,44.3
					z"/>
				<path d="M241.4,15.6l40.6,0c0,0,1-0.1,1,0.9v3.6c0,0,0.1,1-1,1h-36.3v1.6h36.3c0,0,1-0.1,1,1v2.7c0,1.1-1,1.1-1,1.1h-36.3v1.7
					h36.1c0,0,1.2-0.2,1.2,1v3c0,1.3-1.2,1.2-1.2,1.2h-16.6h-0.3v1.7h18.5c0,0,1.3,0,1.3,1.3v3.3c0,1.3-1.3,1.3-1.3,1.3h-10.4
					c1,1,1.8,2.2,2.4,3.5c0.6,1.4,0.9,2.8,0.9,4.3c0,4-1.6,7.3-4.8,10c-3,2.5-6.5,3.8-10.5,3.8c-4,0-7.5-1.3-10.5-3.8
					c-3.2-2.7-4.7-6-4.7-10c0-1.5,0.3-2.9,0.8-4.3c0.4-1,0.6-1.7,2.2-3.5h-10.8c-1.2,0-1.2-1.3-1.2-1.3v-3.3c0-1.3,1.2-1.3,1.2-1.3
					h19.7v-1.7h-0.1h-15.8c-1.2,0-2.1-0.3-2.6-0.8c-0.6-0.6-0.9-1.7-0.9-3.2V19.3C237.9,19.3,237.8,15.6,241.4,15.6z M255.3,44.6
					c-1.5,1.4-2.3,3.2-2.3,5.3c0,2.1,0.8,3.8,2.3,5.3c1.5,1.4,3.3,2.1,5.4,2.1c2,0,3.8-0.7,5.3-2.1c1.5-1.5,2.3-3.2,2.3-5.3
					c0-2.1-0.8-3.8-2.3-5.3c-1.5-1.4-3.3-2.1-5.3-2.1C258.7,42.6,256.9,43.3,255.3,44.6z"/>
				<path d="M334.5,19.4v12.3c0,1.2-1.1,1.1-1.1,1.1h-5.3c-1.2,0-1.1-1.1-1.1-1.1v-9.4h-35.6c-1.2,0-1.1-1.2-1.1-1.2v-4.3
					c0,0,0-1.1,1.1-1.1h39.1C330.6,15.7,334.5,15.2,334.5,19.4z M312.8,63.6"/>
				<path d="M377.6,15.7h5.7c0,0,1.2-0.1,1.2,1.1v15.8h5c0,0,1.1-0.1,1.1,1.1V38c0,1.3-1.3,1.1-1.3,1.1h-4.8v20.1
					c0,1.3-1.3,1.3-1.3,1.3h-5.4c-1.2,0-1.2-1.4-1.2-1.4V16.7C376.5,16.7,376.5,15.7,377.6,15.7z"/>
				<path d="M335.2,42.4h-10.3c1,1,1.8,2.2,2.4,3.5c0.6,1.3,0.9,2.8,0.9,4.3c0,4-1.6,7.3-4.8,10c-3,2.5-6.5,3.8-10.5,3.8
					c-4,0-7.5-1.3-10.5-3.8c-3.2-2.7-4.7-6-4.7-10c0-1.5,0.3-2.9,0.8-4.3c0.5-1.2,1.2-2.4,2.2-3.5h-11c-1.1,0-1.1-1.1-1.1-1.1v-3.7
					c0,0,0-1.1,1.1-1.1h17.3v-7.3c0,0,0-1.1,1.1-1.1h5.1c1.2,0,1.2,1.1,1.2,1.1v7.2h20.8c0,0,1.1,0,1.1,1.2v3.6
					C336.2,42.5,335.2,42.4,335.2,42.4z M307.5,45c-1.6,1.4-2.3,3.2-2.3,5.2c0,2.1,0.8,3.8,2.3,5.3c1.5,1.4,3.3,2.1,5.4,2.1
					c2,0,3.8-0.7,5.3-2.1c1.5-1.5,2.3-3.2,2.3-5.3c0-2.1-0.8-3.8-2.3-5.2c-1.5-1.4-3.3-2.1-5.3-2.1C310.8,42.9,309,43.6,307.5,45z"
					/>
				<path d="M182.2,60.9h-39.6c-1.2,0-2.1-0.3-2.6-0.8c-0.6-0.6-1-1.7-1-3.2V45.5c0,0,0-1.1,0.9-1.1h5.6c0.9,0,0.9,1,0.9,1v8.9h35.7
					c1.2,0,1,1,1,1v4.5C183.1,60.9,182.2,60.9,182.2,60.9z"/>
			</g>
		</g>
	</g>
	<g class="font">
		<path class="st0" d="M89.4,83.5V68.6h2.7v14.8H89.4z"/>
		<path class="st0" d="M95.3,83.5V72.1h2.5v0.7c0.4-0.3,0.8-0.6,1.2-0.7c0.4-0.1,0.9-0.2,1.4-0.2c1.5,0,2.6,0.4,3.4,1.3
			c0.8,0.9,1.2,2.2,1.2,3.8v6.4h-2.6v-6c0-1.1-0.2-1.8-0.5-2.3c-0.4-0.5-0.9-0.7-1.7-0.7c-0.9,0-1.5,0.3-1.9,0.9
			c-0.3,0.6-0.5,1.6-0.5,2.9v5.2H95.3z"/>
		<path class="st0" d="M117.2,82.6c-0.9,0.8-2.1,1.1-3.4,1.1c-0.8,0-1.6-0.1-2.3-0.4c-0.7-0.3-1.3-0.7-1.9-1.3
			c-0.5-0.6-0.9-1.2-1.2-1.9c-0.3-0.8-0.4-1.5-0.4-2.2c0-0.8,0.1-1.5,0.4-2.2c0.3-0.7,0.6-1.3,1.2-1.9c0.6-0.6,1.2-1.1,1.9-1.4
			c0.7-0.3,1.4-0.5,2.2-0.5c1.3,0,2.4,0.4,3.5,1.1c1.1,0.8,1.9,1.9,2.4,3.4h-2.8c-0.4-0.7-0.8-1.2-1.3-1.5c-0.5-0.3-1.1-0.4-1.8-0.4
			c-0.9,0-1.6,0.3-2.2,0.9c-0.6,0.6-0.9,1.5-0.9,2.5c0,1,0.3,1.8,0.9,2.5c0.6,0.6,1.4,1,2.3,1c0.6,0,1.2-0.2,1.7-0.5
			c0.5-0.3,0.9-0.9,1.2-1.5h2.8C119,80.7,118.2,81.9,117.2,82.6z"/>
		<path class="st0" d="M122.3,83.5V68.6h2.6v4.1c0.4-0.3,0.8-0.5,1.2-0.7c0.4-0.1,0.9-0.2,1.5-0.2c1.4,0,2.5,0.4,3.3,1.3
			c0.8,0.9,1.2,2.1,1.2,3.7v6.5h-2.6v-5.9c0-1.1-0.2-2-0.5-2.4c-0.3-0.5-0.9-0.7-1.7-0.7c-0.5,0-0.9,0.1-1.3,0.3
			c-0.3,0.2-0.6,0.5-0.8,0.9c-0.2,0.3-0.3,0.7-0.3,1.1c0,0.4-0.1,0.9-0.1,1.6v5.2H122.3z"/>
		<path class="st0" d="M137.8,78.8c0.2,0.7,0.6,1.3,1.2,1.7c0.6,0.4,1.2,0.6,2,0.6c0.6,0,1.1-0.1,1.6-0.4c0.5-0.2,0.9-0.6,1.2-1.1
			h2.9c-0.6,1.3-1.4,2.3-2.4,3c-1,0.7-2.1,1-3.3,1c-0.8,0-1.6-0.1-2.3-0.4c-0.7-0.3-1.4-0.8-1.9-1.3c-0.5-0.6-1-1.2-1.3-2
			c-0.3-0.7-0.4-1.5-0.4-2.2c0-0.8,0.1-1.5,0.4-2.3c0.3-0.7,0.7-1.3,1.2-1.9c0.6-0.6,1.2-1.1,1.9-1.4c0.7-0.3,1.5-0.4,2.3-0.4
			c1,0,1.9,0.2,2.8,0.7c0.9,0.5,1.6,1.1,2.2,2c0.3,0.5,0.6,1.1,0.7,1.7c0.2,0.6,0.3,1.3,0.3,2.1v0.6H137.8z M139.1,74.8
			c-0.5,0.4-0.9,0.9-1.2,1.6h6c-0.3-0.7-0.7-1.2-1.1-1.6c-0.5-0.3-1.1-0.5-1.8-0.5C140.2,74.3,139.6,74.5,139.1,74.8z"/>
		<path class="st0" d="M149.7,75.5c0.3-0.7,0.7-1.3,1.2-1.9c0.6-0.6,1.2-1.1,1.9-1.4c0.7-0.3,1.5-0.5,2.3-0.5c0.8,0,1.6,0.1,2.3,0.4
			c0.7,0.3,1.4,0.7,1.9,1.3c0.5,0.6,1,1.2,1.3,1.9c0.3,0.7,0.5,1.5,0.5,2.2c0,0.8-0.2,1.5-0.4,2.3c-0.3,0.7-0.6,1.4-1.1,1.9
			c-0.6,0.6-1.3,1.1-2,1.4c-0.8,0.3-1.5,0.5-2.3,0.5c-0.8,0-1.6-0.1-2.4-0.4c-0.7-0.3-1.4-0.8-1.9-1.3c-0.5-0.6-1-1.2-1.3-2
			c-0.3-0.7-0.4-1.5-0.4-2.2C149.3,77,149.5,76.2,149.7,75.5z M152.9,80.2c0.6,0.6,1.4,1,2.4,1c0.9,0,1.7-0.3,2.3-1
			c0.6-0.6,0.9-1.5,0.9-2.5c0-1-0.3-1.9-0.9-2.5c-0.6-0.6-1.4-0.9-2.3-0.9c-0.9,0-1.7,0.3-2.3,0.9c-0.6,0.6-0.9,1.5-0.9,2.5
			C152,78.7,152.3,79.6,152.9,80.2z"/>
		<path class="st0" d="M164,83.5V72.1h2.5v0.7c0.4-0.3,0.8-0.6,1.2-0.7c0.4-0.1,0.9-0.2,1.4-0.2c1.5,0,2.6,0.4,3.4,1.3
			c0.8,0.9,1.2,2.2,1.2,3.8v6.4h-2.6v-6c0-1.1-0.2-1.8-0.5-2.3c-0.3-0.5-0.9-0.7-1.7-0.7c-0.9,0-1.5,0.3-1.9,0.9
			c-0.3,0.6-0.5,1.6-0.5,2.9v5.2H164z"/>
		<path class="st0" d="M185.6,83.5V71.2h-2.9v-2.6h8.5v2.6h-2.9v12.3H185.6z"/>
		<path class="st0" d="M193.6,83.5V72.1h2.5v0.7c0.3-0.3,0.7-0.5,1.1-0.6c0.4-0.1,0.9-0.2,1.4-0.2v2.6c-1,0.1-1.6,0.3-2,0.7
			c-0.3,0.4-0.5,1-0.5,1.9v6.3H193.6z"/>
		<path class="st0" d="M202.2,82c-1.1-1.2-1.7-2.6-1.7-4.2c0-0.8,0.1-1.5,0.4-2.3c0.3-0.7,0.7-1.4,1.2-1.9c0.5-0.6,1.2-1,1.9-1.3
			c0.7-0.3,1.5-0.4,2.3-0.4c0.6,0,1.2,0.1,1.8,0.3c0.6,0.2,1.1,0.5,1.7,0.9v-0.9h2.6v11.4h-2.6v-0.9c-0.5,0.4-1,0.7-1.6,0.9
			c-0.5,0.2-1.1,0.3-1.7,0.3C204.7,83.7,203.3,83.1,202.2,82z M208.8,75.3c-0.6-0.6-1.4-1-2.3-1c-0.9,0-1.7,0.3-2.4,0.9
			c-0.7,0.6-1,1.4-1,2.4c0,1,0.3,1.8,1,2.5c0.6,0.7,1.4,1,2.4,1c0.9,0,1.6-0.3,2.3-1c0.7-0.7,1-1.5,1-2.4
			C209.8,76.8,209.4,76,208.8,75.3z"/>
		<path class="st0" d="M215.5,83.5V72.1h2.5v0.7c0.4-0.3,0.8-0.6,1.2-0.7c0.4-0.1,0.9-0.2,1.4-0.2c1.5,0,2.6,0.4,3.4,1.3
			c0.8,0.9,1.2,2.2,1.2,3.8v6.4h-2.6v-6c0-1.1-0.2-1.8-0.5-2.3c-0.3-0.5-0.9-0.7-1.7-0.7c-0.9,0-1.5,0.3-1.9,0.9
			c-0.3,0.6-0.5,1.6-0.5,2.9v5.2H215.5z"/>
		<path class="st0" d="M230.1,79.4c0,0.6,0.1,1.1,0.4,1.5c0.2,0.3,0.6,0.5,1,0.5c0.4,0,0.7-0.1,0.9-0.3c0.2-0.2,0.3-0.5,0.3-0.8
			c0-0.3-0.1-0.6-0.3-0.8c-0.2-0.2-0.4-0.4-0.8-0.5l-0.5-0.2c-0.5-0.2-0.8-0.3-1-0.4c-0.3-0.1-0.5-0.3-0.7-0.4
			c-0.4-0.3-0.7-0.7-1-1.1c-0.2-0.4-0.3-0.9-0.3-1.5c0-0.9,0.3-1.8,1-2.4c0.7-0.7,1.5-1,2.5-1c1,0,1.8,0.3,2.4,0.9
			c0.6,0.7,1,1.6,1,2.8h-2.5c0-0.5-0.1-0.8-0.3-1c-0.1-0.2-0.4-0.3-0.7-0.3c-0.3,0-0.5,0.1-0.7,0.2c-0.2,0.2-0.2,0.4-0.2,0.7
			c0,0.3,0.1,0.5,0.3,0.6c0.1,0.1,0.5,0.3,1,0.4l0.8,0.3c0.8,0.4,1.5,0.8,1.9,1.4c0.4,0.6,0.6,1.3,0.6,2.2c0,1-0.4,1.9-1.1,2.6
			c-0.7,0.7-1.6,1.1-2.7,1.1c-1.1,0-2-0.4-2.6-1.2c-0.7-0.8-1.1-1.9-1.1-3.3H230.1z"/>
		<path class="st0" d="M237.8,71.2v-2.6h2.6v2.6H237.8z M237.8,72.1h2.6v11.4h-2.6V72.1z"/>
		<path class="st0" d="M244.2,74.5h-1.5v-2.4h1.5v-3.5h2.6v3.5h1.5v2.4h-1.5v9h-2.6V74.5z"/>
		<path class="st0" d="M268.3,82.6c-1.1,0.7-2.5,1.1-4,1.1c-1.1,0-2.1-0.2-3.1-0.7c-1-0.4-1.8-1.1-2.6-1.9c-0.6-0.7-1.1-1.5-1.4-2.4
			c-0.3-0.9-0.5-1.9-0.5-2.8c0-1,0.2-2,0.6-2.9c0.4-0.9,1-1.8,1.7-2.5c0.7-0.7,1.5-1.2,2.4-1.6c0.9-0.4,1.8-0.5,2.9-0.5
			c1.5,0,2.9,0.4,4,1.1c1.2,0.8,2.1,1.9,2.8,3.5h-3.1c-0.5-0.7-1-1.1-1.7-1.5c-0.6-0.3-1.3-0.4-2.1-0.4c-0.6,0-1.2,0.1-1.8,0.3
			c-0.6,0.2-1.1,0.6-1.5,1c-0.5,0.5-0.9,1-1.1,1.6c-0.2,0.6-0.4,1.2-0.4,1.9c0,0.7,0.1,1.4,0.3,2c0.2,0.6,0.6,1.1,1,1.6
			c0.4,0.5,1,0.9,1.6,1.1c0.6,0.3,1.2,0.4,1.8,0.4c0.8,0,1.5-0.1,2-0.4c0.6-0.3,1.1-0.7,1.6-1.3h3.2
			C270.4,80.7,269.4,81.9,268.3,82.6z"/>
		<path class="st0" d="M273.9,75.5c0.3-0.7,0.7-1.3,1.2-1.9c0.6-0.6,1.2-1.1,1.9-1.4c0.7-0.3,1.5-0.5,2.3-0.5c0.8,0,1.6,0.1,2.3,0.4
			c0.7,0.3,1.4,0.7,1.9,1.3c0.5,0.6,1,1.2,1.3,1.9c0.3,0.7,0.5,1.5,0.5,2.2c0,0.8-0.1,1.5-0.4,2.3c-0.3,0.7-0.6,1.4-1.1,1.9
			c-0.6,0.6-1.3,1.1-2,1.4c-0.8,0.3-1.5,0.5-2.3,0.5c-0.8,0-1.6-0.1-2.4-0.4c-0.7-0.3-1.4-0.8-1.9-1.3c-0.5-0.6-1-1.2-1.3-2
			c-0.3-0.7-0.4-1.5-0.4-2.2C273.5,77,273.6,76.2,273.9,75.5z M277.1,80.2c0.6,0.6,1.4,1,2.4,1c0.9,0,1.7-0.3,2.3-1
			c0.6-0.6,0.9-1.5,0.9-2.5c0-1-0.3-1.9-0.9-2.5c-0.6-0.6-1.4-0.9-2.3-0.9c-0.9,0-1.7,0.3-2.3,0.9c-0.6,0.6-0.9,1.5-0.9,2.5
			C276.2,78.7,276.5,79.6,277.1,80.2z"/>
		<path class="st0" d="M288.2,83.5V72.1h2.5v0.7c0.3-0.3,0.7-0.5,1.1-0.6c0.4-0.1,0.9-0.2,1.4-0.2v2.6c-1,0.1-1.6,0.3-2,0.7
			c-0.3,0.4-0.5,1-0.5,1.9v6.3H288.2z"/>
		<path class="st0" d="M299.7,83.5c-0.6-0.2-1.1-0.5-1.6-0.9v3.7h-2.6V72.1h2.6V73c0.5-0.4,1-0.7,1.6-0.9c0.5-0.2,1.1-0.3,1.7-0.3
			c1.7,0,3.1,0.6,4.2,1.7c1.1,1.1,1.7,2.6,1.7,4.3c0,0.8-0.1,1.5-0.4,2.2c-0.3,0.7-0.7,1.4-1.2,1.9c-0.6,0.6-1.2,1-1.9,1.3
			c-0.7,0.3-1.4,0.4-2.3,0.4C300.8,83.8,300.2,83.7,299.7,83.5z M299,80.2c0.6,0.7,1.4,1,2.3,1c0.9,0,1.7-0.3,2.3-1
			c0.7-0.6,1-1.4,1-2.4c0-1-0.3-1.9-1-2.5c-0.6-0.6-1.4-1-2.4-1c-0.9,0-1.7,0.3-2.3,1c-0.6,0.7-1,1.4-1,2.4
			C298,78.7,298.3,79.5,299,80.2z"/>
		<path class="st0" d="M310.1,75.5c0.3-0.7,0.7-1.3,1.2-1.9c0.6-0.6,1.2-1.1,1.9-1.4c0.7-0.3,1.5-0.5,2.3-0.5c0.8,0,1.6,0.1,2.3,0.4
			c0.7,0.3,1.4,0.7,1.9,1.3c0.5,0.6,1,1.2,1.3,1.9c0.3,0.7,0.5,1.5,0.5,2.2c0,0.8-0.2,1.5-0.4,2.3c-0.3,0.7-0.6,1.4-1.1,1.9
			c-0.6,0.6-1.3,1.1-2,1.4c-0.8,0.3-1.5,0.5-2.3,0.5c-0.8,0-1.6-0.1-2.4-0.4c-0.7-0.3-1.4-0.8-1.9-1.3c-0.5-0.6-1-1.2-1.3-2
			c-0.3-0.7-0.4-1.5-0.4-2.2C309.7,77,309.8,76.2,310.1,75.5z M313.3,80.2c0.6,0.6,1.4,1,2.4,1c0.9,0,1.7-0.3,2.3-1
			c0.6-0.6,0.9-1.5,0.9-2.5c0-1-0.3-1.9-0.9-2.5c-0.6-0.6-1.4-0.9-2.3-0.9c-0.9,0-1.7,0.3-2.3,0.9c-0.6,0.6-0.9,1.5-0.9,2.5
			C312.4,78.7,312.7,79.6,313.3,80.2z"/>
		<path class="st0" d="M324.4,83.5V72.1h2.5v0.7c0.3-0.3,0.7-0.5,1.1-0.6c0.4-0.1,0.9-0.2,1.4-0.2v2.6c-1,0.1-1.6,0.3-2,0.7
			c-0.3,0.4-0.5,1-0.5,1.9v6.3H324.4z"/>
		<path class="st0" d="M332.9,82c-1.1-1.2-1.7-2.6-1.7-4.2c0-0.8,0.1-1.5,0.4-2.3c0.3-0.7,0.7-1.4,1.2-1.9c0.5-0.6,1.2-1,1.9-1.3
			c0.7-0.3,1.5-0.4,2.3-0.4c0.6,0,1.2,0.1,1.8,0.3c0.6,0.2,1.1,0.5,1.7,0.9v-0.9h2.6v11.4h-2.6v-0.9c-0.5,0.4-1,0.7-1.6,0.9
			c-0.5,0.2-1.1,0.3-1.7,0.3C335.5,83.7,334.1,83.1,332.9,82z M339.6,75.3c-0.6-0.6-1.4-1-2.3-1c-0.9,0-1.7,0.3-2.4,0.9
			c-0.7,0.6-1,1.4-1,2.4c0,1,0.3,1.8,1,2.5c0.6,0.7,1.4,1,2.4,1c0.9,0,1.6-0.3,2.3-1c0.7-0.7,1-1.5,1-2.4
			C340.5,76.8,340.2,76,339.6,75.3z"/>
		<path class="st0" d="M346.9,74.5h-1.5v-2.4h1.5v-3.5h2.6v3.5h1.5v2.4h-1.5v9h-2.6V74.5z"/>
		<path class="st0" d="M353.3,71.2v-2.6h2.6v2.6H353.3z M353.3,72.1h2.6v11.4h-2.6V72.1z"/>
		<path class="st0" d="M359.1,75.5c0.3-0.7,0.7-1.3,1.2-1.9c0.6-0.6,1.2-1.1,1.9-1.4c0.7-0.3,1.5-0.5,2.3-0.5c0.8,0,1.6,0.1,2.3,0.4
			c0.7,0.3,1.4,0.7,1.9,1.3c0.5,0.6,1,1.2,1.3,1.9c0.3,0.7,0.5,1.5,0.5,2.2c0,0.8-0.2,1.5-0.4,2.3c-0.3,0.7-0.6,1.4-1.1,1.9
			c-0.6,0.6-1.3,1.1-2,1.4c-0.8,0.3-1.5,0.5-2.3,0.5c-0.8,0-1.6-0.1-2.4-0.4c-0.7-0.3-1.4-0.8-1.9-1.3c-0.5-0.6-1-1.2-1.3-2
			c-0.3-0.7-0.4-1.5-0.4-2.2C358.7,77,358.8,76.2,359.1,75.5z M362.2,80.2c0.6,0.6,1.4,1,2.4,1c0.9,0,1.7-0.3,2.3-1
			c0.6-0.6,0.9-1.5,0.9-2.5c0-1-0.3-1.9-0.9-2.5c-0.6-0.6-1.4-0.9-2.3-0.9c-0.9,0-1.7,0.3-2.3,0.9c-0.6,0.6-0.9,1.5-0.9,2.5
			C361.3,78.7,361.6,79.6,362.2,80.2z"/>
		<path class="st0" d="M373.3,83.5V72.1h2.5v0.7c0.4-0.3,0.8-0.6,1.2-0.7c0.4-0.1,0.9-0.2,1.4-0.2c1.5,0,2.6,0.4,3.4,1.3
			c0.8,0.9,1.2,2.2,1.2,3.8v6.4h-2.6v-6c0-1.1-0.2-1.8-0.5-2.3c-0.3-0.5-0.9-0.7-1.7-0.7c-0.9,0-1.5,0.3-1.9,0.9
			c-0.3,0.6-0.5,1.6-0.5,2.9v5.2H373.3z"/>
	</g>
	<g>
		<g>
			<g>
				<path class="st1" d="M48.3,53.5l9.7-2.8c0.3-0.1,0.5-0.4,0.5-0.7l1.6-23.4c0-0.3-0.2-0.5-0.5-0.6l-8.7-0.2c0.1,2,0.2,4,0.2,6
					C51.1,39.4,50.1,46.6,48.3,53.5z"/>
				<path class="st2" d="M74.1,51.5L45.5,62C41.4,72.8,35,82.5,27,90.6l-0.4,5.6c0,0.3,0.2,0.3,0.4,0.3C54.3,89,66.7,71.4,66.7,71.4
					c6.2-7.3,7.9-19.6,7.9-19.6C74.6,51.5,74.4,51.4,74.1,51.5z"/>
				<path class="st3" d="M67.2,19.2c0.3,0,0.5-0.2,0.4-0.5c0,0-2.4-7.2-7.2-10.7c0,0-5.2-5.2-15-6.6c2,5,3.5,10.3,4.4,15.7
					L67.2,19.2z"/>
				<linearGradient id="SVGID_1_" gradientUnits="userSpaceOnUse" x1="57.2722" y1="45.8777" x2="25.1783" y2="45.8777">
					<stop  offset="0" style="stop-color:#F8B500"/>
					<stop  offset="1" style="stop-color:#E94816"/>
				</linearGradient>
				<path class="st4" d="M4,25.4L1.1,66.5c0,0.3,0.2,0.5,0.5,0.4l46.7-13.4c1.8-6.9,2.8-14.2,2.8-21.7c0-2-0.1-4-0.2-6L4.6,24.8
					C4.3,24.8,4,25.1,4,25.4z"/>
				
					<linearGradient id="SVGID_00000030467152190762291930000016516992314201947035_" gradientUnits="userSpaceOnUse" x1="45.4456" y1="61.8846" x2="21.8596" y2="85.4705">
					<stop  offset="0" style="stop-color:#71B4D2"/>
					<stop  offset="1" style="stop-color:#217CB3"/>
				</linearGradient>
				<path style="fill:url(#SVGID_00000030467152190762291930000016516992314201947035_);" d="M29.1,68c-0.3,0.1-0.5,0.4-0.5,0.7
					L27,90.6c8-8.1,14.3-17.9,18.5-28.7L29.1,68z"/>
				
					<linearGradient id="SVGID_00000057140442492208182870000018310026615751607979_" gradientUnits="userSpaceOnUse" x1="55.7413" y1="21.9236" x2="15.2485" y2="-18.5692">
					<stop  offset="0" style="stop-color:#F7F28A"/>
					<stop  offset="2.844983e-02" style="stop-color:#ECEB80"/>
					<stop  offset="0.1202" style="stop-color:#CBD865"/>
					<stop  offset="0.2195" style="stop-color:#ADC851"/>
					<stop  offset="0.326" style="stop-color:#92BA44"/>
					<stop  offset="0.4426" style="stop-color:#7BB03B"/>
					<stop  offset="0.5745" style="stop-color:#6AAA35"/>
					<stop  offset="0.7343" style="stop-color:#5FA633"/>
					<stop  offset="1" style="stop-color:#5BA532"/>
				</linearGradient>
				<path style="fill:url(#SVGID_00000057140442492208182870000018310026615751607979_);" d="M40.3,1.6l-1,13.8
					c0,0.3,0.2,0.6,0.5,0.6l10,1.2c-1-5.4-2.5-10.7-4.4-15.7c-1.4-0.2-2.9-0.3-4.5-0.4C40.5,1,40.3,1.3,40.3,1.6z"/>
			</g>
		</g>
	</g>
</g>
</svg>
