<?xml version="1.0" encoding="utf-8"?>
<!-- Generator: Adobe Illustrator 27.0.0, SVG Export Plug-In . SVG Version: 6.00 Build 0)  -->
<svg version="1.1" id="Vrstva_1" xmlns="http://www.w3.org/2000/svg" xmlns:xlink="http://www.w3.org/1999/xlink" x="0px" y="0px"
	 viewBox="0 0 233.7 234" style="enable-background:new 0 0 233.7 234;" xml:space="preserve">
<style type="text/css">
	.st0{fill:#FFFFFF;}
</style>
<g>
	<path class="st0" d="M132.4-248.7c2.9,1.6,5.5,3.5,7.9,5.8c2.8-3.2,6.5-6.9,11.5-10c9.2-5.8,24.2-10.8,45.9-6
		c-5.8-11.4-13.9-21.5-23.7-29.5C148.8-286,136.7-260.4,132.4-248.7L132.4-248.7z"/>
	<path class="st0" d="M150.6-211.1c-0.6,3.3-1.6,6.4-3,9.3c3.9,1.6,8.6,4.1,13.1,7.9c8.3,7,17.8,19.6,19.9,41.8
		c8.9-8.9,16.1-19.6,20.8-31.6C191.2-207,162.9-210.6,150.6-211.1L150.6-211.1z"/>
	<path class="st0" d="M148.5-230.8c0.7,1.8,1.3,3.7,1.8,5.7c5.5,0.2,13.8,0.9,22.8,3.2c14.2,3.8,25.4,10.6,33.2,19.9
		c0.9-5,1.3-10.2,1.3-15.5c0-8.7-1.2-17.2-3.5-25.2C168.6-254.9,153.1-237.7,148.5-230.8L148.5-230.8z"/>
	<path class="st0" d="M151.6-183.2c-5-4.2-10.1-6.1-13.2-7c-1.5,1.3-3.1,2.4-4.8,3.4c1.5,5.3,3.5,13.4,4,22.7
		c0.8,14.7-2.2,27.4-8.7,37.8c13.9-2,26.9-7.2,38-14.7C167.3-160.3,162.2-174.4,151.6-183.2L151.6-183.2z"/>
	<path class="st0" d="M137.2-217.4c0-11.9-9.7-21.6-21.6-21.6S94-229.3,94-217.4c0,11.9,9.7,21.6,21.6,21.6S137.2-205.5,137.2-217.4
		L137.2-217.4z"/>
	<path class="st0" d="M115.6-181.9c-1.7,0-3.3-0.1-5-0.4c-0.3,4.2-1.2,9.4-3.4,14.9c-4,10.1-13.2,23-33.6,31.8
		c11.1,5.7,23.4,9.2,36.5,10c19-16.8,13.7-44.8,10.3-56.7C118.8-182,117.2-181.9,115.6-181.9L115.6-181.9z"/>
	<path class="st0" d="M58.8-145c36-11,38.3-34,38-42.3c-1.7-1.1-3.3-2.2-4.8-3.6c-4.5,3.1-11.7,7.4-20.4,10.8
		c-8.7,3.4-17.2,5.1-25.3,5.1c-4.6,0-9-0.5-13.3-1.6C39.2-164.2,48.1-153.4,58.8-145L58.8-145z"/>
	<path class="st0" d="M55.4-304.7c0.4-0.3,0.8-0.6,1.3-0.9c16.8-11.3,37.1-17.9,58.8-17.9c0,0,0,0,0,0c0,0,0,0,0.1,0
		c24.2,0,46.5,8.1,64.3,21.8c0.5,0.3,0.9,0.6,1.3,1c24.6,19.4,40.4,49.5,40.4,83.2c0,12.6-2.2,24.7-6.3,35.9c0,0,0,0,0,0
		c-7.2,19.9-20.1,37-36.8,49.3c-0.4,0.3-0.8,0.6-1.2,0.9c-17.4,12.5-38.7,19.9-61.7,19.9c-1,0-2.1,0-3.1,0c0,0,0,0,0,0
		c-0.1,0-0.1,0-0.2,0c-21.7-0.7-41.8-7.9-58.4-19.8c-0.4-0.3-0.9-0.6-1.2-0.9c-26.1-19.3-43.1-50.4-43.1-85.3
		C9.5-253.6,27.7-285.5,55.4-304.7L55.4-304.7z M115.6-100.4c64.5,0,117-52.5,117-117c0-64.5-52.5-117-117-117
		c-64.5,0-117,52.5-117,117C-1.4-152.9,51.1-100.4,115.6-100.4L115.6-100.4z"/>
	<path class="st0" d="M83.6-202c-1.4-2.9-2.4-6-3-9.3c-3.3,0.8-7.4,1.4-11.9,1.4c-1.1,0-2.2,0-3.3-0.1c-10.8-0.7-25.9-5.4-40.7-22.1
		c-0.8,4.8-1.2,9.7-1.2,14.7c0,8,1,15.7,2.9,23.1C48.2-181.5,73.2-195.1,83.6-202L83.6-202z"/>
	<path class="st0" d="M91-243.1c2.3-2.2,5-4.2,7.9-5.7c-2.2-3.6-4.5-8.3-6-14.1c-2.7-10.5-2.8-26.3,8.5-45.5
		c-12.9,2-24.9,6.7-35.4,13.4C60.6-270.4,81.3-250.8,91-243.1L91-243.1z"/>
	<path class="st0" d="M81.1-226c0.5-1.9,1.1-3.8,1.9-5.6c-4.4-3.4-10.7-8.8-16.6-16c-9.2-11.4-14.3-23.4-15.2-35.6
		c-9.7,9.5-17.4,21.2-22.1,34.2C50.7-218.3,73.3-223.1,81.1-226L81.1-226z"/>
	<path class="st0" d="M113.1-252.9c0.8-0.1,1.7-0.1,2.5-0.1c1.2,0,2.3,0.1,3.4,0.2c1.9-5.2,5.1-12.9,10.1-20.7
		c8-12.3,17.9-20.9,29.2-25.4c-11.8-6.2-25.2-10-39.4-10.5c-11.6,15.4-15.8,29.9-12.4,43.1C108.1-259.9,111.1-255.4,113.1-252.9
		L113.1-252.9z"/>
</g>
<path class="st0" d="M468.4-296.9l-55.2,33.3c-6.5-2-13.4-3.2-20.5-3.7l77.2-46.7c-1.2,3.9-1.8,8.1-1.8,12.4
	C468.1-299.9,468.2-298.4,468.4-296.9z M443.2-177.7c0,30.8-25,55.8-55.8,55.8s-55.8-25-55.8-55.8c0-30.8,25-55.8,55.8-55.8
	S443.2-208.4,443.2-177.7z M358.3-177.7c0-2.7-2.2-5-5-5s-5,2.2-5,5c0,2.7,2.2,5,5,5S358.3-174.9,358.3-177.7z M372.8-152.5
	c-2.4-1.4-5.4-0.6-6.8,1.8c-1.4,2.4-0.6,5.4,1.8,6.8c2.4,1.4,5.4,0.6,6.8-1.8C376-148,375.2-151.1,372.8-152.5z M374.7-209.7
	c-1.4-2.4-4.4-3.2-6.8-1.8c-2.4,1.4-3.2,4.4-1.8,6.8c1.4,2.4,4.4,3.2,6.8,1.8C375.2-204.3,376-207.3,374.7-209.7z M399.2-177.3
	l-5.6-10.4l-11.8-0.3l-6.2,10l5.6,10.4l11.8,0.3L399.2-177.3z M408.7-150.6c-1.4-2.4-4.4-3.2-6.8-1.8c-2.4,1.4-3.2,4.4-1.8,6.8
	c1.4,2.4,4.4,3.2,6.8,1.8C409.3-145.2,410.1-148.3,408.7-150.6z M406.9-211.5c-2.4-1.4-5.4-0.6-6.8,1.8c-1.4,2.4-0.6,5.4,1.8,6.8
	c2.4,1.4,5.4,0.6,6.8-1.8C410.1-207.1,409.3-210.1,406.9-211.5z M426.4-177.7c0-2.7-2.2-5-5-5c-2.7,0-5,2.2-5,5c0,2.7,2.2,5,5,5
	C424.2-172.7,426.4-174.9,426.4-177.7z M524-274l-56.8,98.3c-1,43.2-36.4,77.9-79.8,77.9c-44.1,0-79.9-35.8-79.9-79.9
	c0-44.1,35.8-79.9,79.9-79.9c37,0,68.2,25.2,77.2,59.4l42-73.4c-14.5-2.2-25.7-14.8-25.7-29.9c0-16.7,13.6-30.3,30.3-30.3
	c16.7,0,30.3,13.6,30.3,30.3C541.5-289.3,534.3-278.8,524-274z M505.3-291.2h11.8l5.9-10.2l-5.9-10.2h-11.8l-5.9,10.2L505.3-291.2z
	 M448.9-177.7c0-33.9-27.6-61.5-61.5-61.5c-33.9,0-61.5,27.6-61.5,61.5c0,33.9,27.6,61.5,61.5,61.5
	C421.3-116.1,448.9-143.7,448.9-177.7z"/>
<g>
	<path class="st0" d="M116.6,0c-64,0-116,52-116,116c0,64,52,116,116,116c63.9,0,116-52,116-116C232.6,52,180.6,0,116.6,0z
		 M116.6,219.1c-56.9,0-103.2-46.3-103.2-103.2c0-56.9,46.3-103.1,103.2-103.1c56.9,0,103.1,46.3,103.1,103.1
		C219.8,172.8,173.5,219.1,116.6,219.1z"/>
	<path class="st0" d="M94.2,170.7C72,161.4,57.6,140,57.6,116c0-20.4,10.4-39.1,27.8-50l1.6-1l4.6,9.2c0.3,0.7,1,1.1,1.7,1.1
		c0.7,0.1,1.4-0.3,1.8-0.9l17.7-27.6c0.4-0.6,0.4-1.4,0.1-2c-0.3-0.6-1-1.1-1.7-1.1l-32.7-2.3c-0.7,0-1.4,0.3-1.8,0.9
		c-0.4,0.6-0.5,1.4-0.1,2l4.5,9L79.7,54c-21.7,13-35.2,36.8-35.2,62c0,28.8,18,55.6,44.7,66.7c0.8,0.3,1.7,0.5,2.5,0.5
		c1.3,0,2.5-0.4,3.6-1.1c1.8-1.2,2.9-3.2,2.9-5.4C98.2,174.1,96.7,171.7,94.2,170.7z"/>
	<path class="st0" d="M144.1,49.2c-2-0.8-4.3-0.6-6.1,0.6c-1.8,1.2-2.9,3.2-2.9,5.4c0,2.7,1.5,5.1,4,6.1
		c22.3,9.2,36.6,30.7,36.6,54.7c0,20.4-10.4,39.1-27.8,50l-1.6,1l-4.6-9.2c-0.3-0.7-1-1.1-1.7-1.1c-0.7,0.1-1.4,0.3-1.8,0.9
		l-17.7,27.7c-0.4,0.6-0.4,1.4-0.1,2c0.3,0.6,1,1.1,1.7,1.1l32.7,2.3c0.1,0,0.1,0,0.1,0c0.7,0,1.3-0.3,1.7-0.9
		c0.4-0.6,0.5-1.4,0.1-2l-4.5-9l1.4-0.8c21.7-13,35.2-36.8,35.2-62C188.8,87.1,170.8,60.3,144.1,49.2z"/>
	<path class="st0" d="M122.7,153.8l0.5-2.1c0.7-2.9,2.8-5.2,5.5-6.4c0.1,0,0.1,0,0.1,0c2.7-1.2,5.9-0.9,8.4,0.6l1.9,1.1
		c1.1,0.7,2.6,0.5,3.4-0.4l4.8-4.8c0.9-0.9,1.1-2.4,0.4-3.4l-1.2-1.9c-1.5-2.6-1.7-5.6-0.6-8.4c0-0.1,0-0.1,0.1-0.1
		c1.1-2.7,3.4-4.8,6.3-5.5l2.1-0.5c1.3-0.3,2.1-1.5,2.1-2.8v-6.7c0-1.3-0.9-2.4-2.1-2.7l-2.1-0.5c-2.9-0.7-5.2-2.8-6.3-5.5
		c-0.1-0.1-0.1-0.1-0.1-0.1c-1.1-2.7-0.9-5.9,0.6-8.4l1.2-1.9c0.7-1.1,0.5-2.6-0.4-3.5l-4.8-4.7c-0.9-0.9-2.4-1.1-3.4-0.4l-1.9,1.1
		c-2.5,1.6-5.6,1.8-8.4,0.6c-0.1,0-0.1-0.1-0.1-0.1c-2.7-1.1-4.8-3.4-5.5-6.3l-0.5-2.1c-0.3-1.3-1.4-2.1-2.7-2.1h-6.7
		c-1.3,0-2.5,0.9-2.8,2.1l-0.5,2.1c-0.7,2.9-2.8,5.2-5.5,6.3c-0.1,0-0.1,0.1-0.1,0.1c-2.7,1.2-5.8,0.9-8.4-0.6l-1.9-1.1
		c-1.1-0.7-2.6-0.5-3.4,0.4L86,90c-0.9,0.9-1.1,2.3-0.4,3.5l1.1,1.9c1.5,2.5,1.7,5.6,0.6,8.4c0,0.1,0,0.1,0,0.1
		c-1.1,2.7-3.5,4.8-6.4,5.5l-2.1,0.5c-1.3,0.3-2.2,1.4-2.2,2.7v6.7c0,1.3,0.9,2.5,2.2,2.8l2.1,0.5c2.9,0.7,5.2,2.8,6.4,5.5v0.1
		c1.1,2.8,0.9,5.8-0.6,8.4l-1.1,1.9c-0.7,1.1-0.5,2.5,0.4,3.4l4.8,4.8c0.9,0.9,2.4,1.1,3.4,0.4l1.9-1.1c2.6-1.5,5.6-1.7,8.4-0.6
		c0.1,0,0.1,0,0.1,0c2.7,1.1,4.8,3.5,5.5,6.4l0.5,2.1c0.3,1.3,1.5,2.2,2.8,2.2h6.7C121.3,156,122.4,155.1,122.7,153.8z M116.6,130.9
		c-8.3,0-15-6.7-15-15s6.7-15,15-15s15,6.7,15,15S124.9,130.9,116.6,130.9z"/>
</g>
</svg>
