<?xml version="1.0" encoding="utf-8"?>
<!-- Generator: Adobe Illustrator 27.0.0, SVG Export Plug-In . SVG Version: 6.00 Build 0)  -->
<svg version="1.1" id="Vrstva_1" xmlns="http://www.w3.org/2000/svg" xmlns:xlink="http://www.w3.org/1999/xlink" x="0px" y="0px"
	 viewBox="0 0 233.7 234" style="enable-background:new 0 0 233.7 234;" xml:space="preserve">
<style type="text/css">
	.st0{fill:#C9C9C9;}
</style>
<g>
	<path class="st0" d="M116.6,0c-64,0-116,52-116,116s52,116,116,116c63.9,0,116-52,116-116S180.6,0,116.6,0z M116.6,219.1
		c-56.9,0-103.2-46.3-103.2-103.2S59.7,12.8,116.6,12.8s103.1,46.3,103.1,103.1C219.8,172.8,173.5,219.1,116.6,219.1z"/>
	<path class="st0" d="M94.2,170.7C72,161.4,57.6,140,57.6,116c0-20.4,10.4-39.1,27.8-50l1.6-1l4.6,9.2c0.3,0.7,1,1.1,1.7,1.1
		c0.7,0.1,1.4-0.3,1.8-0.9l17.7-27.6c0.4-0.6,0.4-1.4,0.1-2s-1-1.1-1.7-1.1l-32.7-2.3c-0.7,0-1.4,0.3-1.8,0.9
		c-0.4,0.6-0.5,1.4-0.1,2l4.5,9L79.7,54C58,67,44.5,90.8,44.5,116c0,28.8,18,55.6,44.7,66.7c0.8,0.3,1.7,0.5,2.5,0.5
		c1.3,0,2.5-0.4,3.6-1.1c1.8-1.2,2.9-3.2,2.9-5.4C98.2,174.1,96.7,171.7,94.2,170.7z"/>
	<path class="st0" d="M144.1,49.2c-2-0.8-4.3-0.6-6.1,0.6c-1.8,1.2-2.9,3.2-2.9,5.4c0,2.7,1.5,5.1,4,6.1
		c22.3,9.2,36.6,30.7,36.6,54.7c0,20.4-10.4,39.1-27.8,50l-1.6,1l-4.6-9.2c-0.3-0.7-1-1.1-1.7-1.1c-0.7,0.1-1.4,0.3-1.8,0.9
		l-17.7,27.7c-0.4,0.6-0.4,1.4-0.1,2s1,1.1,1.7,1.1l32.7,2.3c0.1,0,0.1,0,0.1,0c0.7,0,1.3-0.3,1.7-0.9c0.4-0.6,0.5-1.4,0.1-2l-4.5-9
		l1.4-0.8c21.7-13,35.2-36.8,35.2-62C188.8,87.1,170.8,60.3,144.1,49.2z"/>
	<path class="st0" d="M122.7,153.8l0.5-2.1c0.7-2.9,2.8-5.2,5.5-6.4c0.1,0,0.1,0,0.1,0c2.7-1.2,5.9-0.9,8.4,0.6l1.9,1.1
		c1.1,0.7,2.6,0.5,3.4-0.4l4.8-4.8c0.9-0.9,1.1-2.4,0.4-3.4l-1.2-1.9c-1.5-2.6-1.7-5.6-0.6-8.4c0-0.1,0-0.1,0.1-0.1
		c1.1-2.7,3.4-4.8,6.3-5.5l2.1-0.5c1.3-0.3,2.1-1.5,2.1-2.8v-6.7c0-1.3-0.9-2.4-2.1-2.7l-2.1-0.5c-2.9-0.7-5.2-2.8-6.3-5.5
		c-0.1-0.1-0.1-0.1-0.1-0.1c-1.1-2.7-0.9-5.9,0.6-8.4l1.2-1.9c0.7-1.1,0.5-2.6-0.4-3.5l-4.8-4.7c-0.9-0.9-2.4-1.1-3.4-0.4l-1.9,1.1
		c-2.5,1.6-5.6,1.8-8.4,0.6c-0.1,0-0.1-0.1-0.1-0.1c-2.7-1.1-4.8-3.4-5.5-6.3l-0.5-2.1c-0.3-1.3-1.4-2.1-2.7-2.1h-6.7
		c-1.3,0-2.5,0.9-2.8,2.1l-0.5,2.1c-0.7,2.9-2.8,5.2-5.5,6.3c-0.1,0-0.1,0.1-0.1,0.1c-2.7,1.2-5.8,0.9-8.4-0.6l-1.9-1.1
		c-1.1-0.7-2.6-0.5-3.4,0.4L86,90c-0.9,0.9-1.1,2.3-0.4,3.5l1.1,1.9c1.5,2.5,1.7,5.6,0.6,8.4c0,0.1,0,0.1,0,0.1
		c-1.1,2.7-3.5,4.8-6.4,5.5l-2.1,0.5c-1.3,0.3-2.2,1.4-2.2,2.7v6.7c0,1.3,0.9,2.5,2.2,2.8l2.1,0.5c2.9,0.7,5.2,2.8,6.4,5.5v0.1
		c1.1,2.8,0.9,5.8-0.6,8.4l-1.1,1.9c-0.7,1.1-0.5,2.5,0.4,3.4l4.8,4.8c0.9,0.9,2.4,1.1,3.4,0.4l1.9-1.1c2.6-1.5,5.6-1.7,8.4-0.6
		c0.1,0,0.1,0,0.1,0c2.7,1.1,4.8,3.5,5.5,6.4l0.5,2.1c0.3,1.3,1.5,2.2,2.8,2.2h6.7C121.3,156,122.4,155.1,122.7,153.8z M116.6,130.9
		c-8.3,0-15-6.7-15-15s6.7-15,15-15s15,6.7,15,15S124.9,130.9,116.6,130.9z"/>
</g>
</svg>
