<?xml version="1.0" encoding="utf-8"?>
<!-- Generator: Adobe Illustrator 27.0.0, SVG Export Plug-In . SVG Version: 6.00 Build 0)  -->
<svg version="1.1" id="Vrstva_1" xmlns="http://www.w3.org/2000/svg" xmlns:xlink="http://www.w3.org/1999/xlink" x="0px" y="0px"
	 viewBox="0 0 235.7 236.1" style="enable-background:new 0 0 235.7 236.1;" xml:space="preserve">
<style type="text/css">
	.st0{fill:#FFFFFF;}
</style>
<g>
	<path class="st0" d="M-174.5,84.4c2.9,1.6,5.5,3.5,7.9,5.8c2.8-3.2,6.5-6.9,11.5-10c9.2-5.8,24.2-10.8,45.9-6
		c-5.8-11.4-13.9-21.5-23.7-29.5C-158.1,47-170.3,72.7-174.5,84.4L-174.5,84.4z"/>
	<path class="st0" d="M-156.4,122c-0.6,3.3-1.6,6.4-3,9.3c3.9,1.6,8.6,4.1,13.1,7.9c8.3,7,17.8,19.6,19.9,41.8
		c8.9-8.9,16.1-19.6,20.8-31.6C-115.8,126.1-144,122.4-156.4,122L-156.4,122z"/>
	<path class="st0" d="M-158.4,102.3c0.7,1.8,1.3,3.7,1.8,5.7c5.5,0.2,13.8,0.9,22.8,3.2c14.2,3.8,25.4,10.6,33.2,19.9
		c0.9-5,1.3-10.2,1.3-15.5c0-8.7-1.2-17.2-3.5-25.2C-138.4,78.2-153.9,95.4-158.4,102.3L-158.4,102.3z"/>
	<path class="st0" d="M-155.3,149.9c-5-4.2-10.1-6.1-13.2-7c-1.5,1.3-3.1,2.4-4.8,3.4c1.5,5.3,3.5,13.4,4,22.7
		c0.8,14.7-2.2,27.4-8.7,37.8c13.9-2,26.9-7.2,38-14.7C-139.6,172.8-144.8,158.6-155.3,149.9L-155.3,149.9z"/>
	<path class="st0" d="M-169.8,115.7c0-11.9-9.7-21.6-21.6-21.6c-11.9,0-21.6,9.7-21.6,21.6c0,11.9,9.7,21.6,21.6,21.6
		C-179.5,137.2-169.8,127.6-169.8,115.7L-169.8,115.7z"/>
	<path class="st0" d="M-191.4,151.2c-1.7,0-3.3-0.1-5-0.4c-0.3,4.2-1.2,9.4-3.4,14.9c-4,10.1-13.2,23-33.6,31.8
		c11.1,5.7,23.4,9.2,36.5,10c19-16.8,13.7-44.8,10.3-56.7C-188.1,151.1-189.7,151.2-191.4,151.2L-191.4,151.2z"/>
	<path class="st0" d="M-248.1,188.1c36-11,38.3-34,38-42.3c-1.7-1.1-3.3-2.2-4.8-3.6c-4.5,3.1-11.7,7.4-20.4,10.8
		c-8.7,3.4-17.2,5.1-25.3,5.1c-4.6,0-9-0.5-13.3-1.6C-267.7,168.9-258.9,179.7-248.1,188.1L-248.1,188.1z"/>
	<path class="st0" d="M-251.5,28.4c0.4-0.3,0.8-0.6,1.3-0.9c16.8-11.3,37.1-17.9,58.8-17.9c0,0,0,0,0,0c0,0,0,0,0.1,0
		c24.2,0,46.5,8.1,64.3,21.8c0.5,0.3,0.9,0.6,1.3,1c24.6,19.4,40.4,49.5,40.4,83.2c0,12.6-2.2,24.7-6.3,35.9c0,0,0,0,0,0
		c-7.2,19.9-20.1,37-36.8,49.3c-0.4,0.3-0.8,0.6-1.2,0.9c-17.4,12.5-38.7,19.9-61.7,19.9c-1,0-2.1,0-3.1,0c0,0,0,0,0,0
		c-0.1,0-0.1,0-0.2,0c-21.7-0.7-41.8-7.9-58.4-19.8c-0.4-0.3-0.9-0.6-1.2-0.9c-26.1-19.3-43.1-50.4-43.1-85.3
		C-297.4,79.5-279.2,47.6-251.5,28.4L-251.5,28.4z M-191.4,232.7c64.5,0,117-52.5,117-117c0-64.5-52.5-117-117-117
		c-64.5,0-117,52.5-117,117C-308.3,180.2-255.9,232.7-191.4,232.7L-191.4,232.7z"/>
	<path class="st0" d="M-223.4,131.1c-1.4-2.9-2.4-6-3-9.3c-3.3,0.8-7.4,1.4-11.9,1.4c-1.1,0-2.2,0-3.3-0.1
		c-10.8-0.7-25.9-5.4-40.7-22.1c-0.8,4.8-1.2,9.7-1.2,14.7c0,8,1,15.7,2.9,23.1C-258.7,151.6-233.7,138-223.4,131.1L-223.4,131.1z"
		/>
	<path class="st0" d="M-215.9,90c2.3-2.2,5-4.2,7.9-5.7c-2.2-3.6-4.5-8.3-6-14.1c-2.7-10.5-2.8-26.3,8.5-45.5
		c-12.9,2-24.9,6.7-35.4,13.4C-246.3,62.7-225.6,82.3-215.9,90L-215.9,90z"/>
	<path class="st0" d="M-225.9,107.1c0.5-1.9,1.1-3.8,1.9-5.6c-4.4-3.4-10.7-8.8-16.6-16c-9.2-11.4-14.3-23.4-15.2-35.6
		C-265.4,59.4-273,71-277.8,84C-256.2,114.8-233.6,110-225.9,107.1L-225.9,107.1z"/>
	<path class="st0" d="M-193.9,80.2c0.8-0.1,1.7-0.1,2.5-0.1c1.2,0,2.3,0.1,3.4,0.2c1.9-5.2,5.1-12.9,10.1-20.7
		c8-12.3,17.9-20.9,29.2-25.4c-11.8-6.2-25.2-10-39.4-10.5c-11.6,15.4-15.8,29.9-12.4,43.1C-198.8,73.1-195.8,77.7-193.9,80.2
		L-193.9,80.2z"/>
</g>
<g>
	<path class="st0" d="M-34.5,341.6c-11,0-31.9-1.8-42.5-2.8c-1.1-3.3-4.3-5.7-8-5.7h-118.6c-3.5,0-6.6,2.2-7.9,5.3
		c-1.2-0.4-2.7-0.6-4.2-0.3l-24,4.1c-5.1,0.9-9.2,5.8-9.2,10.9v25.4h-7.9c-4.7,0-8.5,3.8-8.5,8.5v6.3h-41.8v27.6h41.8v6.3
		c0,4.7,3.8,8.5,8.5,8.5h7.9V461c0,5.1,4.1,10,9.2,10.9l24,4.1c1.5,0.3,2.9,0.1,4.2-0.3c1.3,3.1,4.3,5.3,7.9,5.3h17.1
		c-0.3,0.9-0.5,1.8-0.5,2.8v11.9c0,4.7-3.8,8.8-8.4,9.2l-41.4,3.6c-4.6,0.4-8.4,4.5-8.4,9.2v4.2c0,4.7,3.8,8.5,8.5,8.5h183.8
		c4.7,0,8.5-3.8,8.5-8.5v-4.2c0-4.7-3.8-8.8-8.4-9.2l-41.4-3.6c-4.6-0.4-8.4-4.5-8.4-9.2v-11.9c0-1-0.2-1.9-0.5-2.8H-85
		c3.7,0,6.9-2.4,8-5.8c10.5-1,30.9-2.7,42.5-2.7C-1.7,472.6-1.7,341.6-34.5,341.6z M-129,483.9v11.9c0,4.7-3.8,8.5-8.5,8.5h-14.7
		c-4.7,0-8.5-3.8-8.5-8.5v-11.9c0-1-0.2-1.9-0.5-2.8h32.6C-128.9,481.9-129,482.9-129,483.9z M-83.6,463.9c-0.5-0.1-0.9-0.1-1.4-0.1
		h-118.6c-1,0-1.9,0.2-2.8,0.5v-16.4c0.9,0.3,1.8,0.5,2.8,0.5H-85c0.5,0,0.9,0,1.4-0.1V463.9z M-83.6,431.3
		c-0.5-0.1-0.9-0.1-1.4-0.1h-118.6c-1,0-1.9,0.2-2.8,0.5v-16.4c0.9,0.3,1.8,0.5,2.8,0.5H-85c0.5,0,0.9,0,1.4-0.1V431.3z
		 M-83.6,398.6c-0.5-0.1-0.9-0.1-1.4-0.1h-118.6c-1,0-1.9,0.2-2.8,0.5v-16.4c0.9,0.3,1.8,0.5,2.8,0.5H-85c0.5,0,0.9,0,1.4-0.1V398.6
		z M-83.6,365.9c-0.5-0.1-0.9-0.1-1.4-0.1h-118.6c-1,0-1.9,0.2-2.8,0.5v-16.4c0.9,0.3,1.8,0.5,2.8,0.5H-85c0.5,0,0.9,0,1.4-0.1
		V365.9z"/>
</g>
<path class="st0" d="M161.4,36.2l-55.2,33.3c-6.5-2-13.4-3.2-20.5-3.7L163,19.2c-1.2,3.9-1.8,8.1-1.8,12.4
	C161.2,33.1,161.3,34.7,161.4,36.2z M136.3,155.4c0,30.8-25,55.8-55.8,55.8s-55.8-25-55.8-55.8c0-30.8,25-55.8,55.8-55.8
	S136.3,124.6,136.3,155.4z M51.4,155.4c0-2.7-2.2-5-5-5c-2.7,0-5,2.2-5,5c0,2.7,2.2,5,5,5C49.1,160.4,51.4,158.2,51.4,155.4z
	 M65.9,180.6c-2.4-1.4-5.4-0.6-6.8,1.8c-1.4,2.4-0.6,5.4,1.8,6.8c2.4,1.4,5.4,0.6,6.8-1.8C69.1,185,68.3,182,65.9,180.6z
	 M67.7,123.4c-1.4-2.4-4.4-3.2-6.8-1.8c-2.4,1.4-3.2,4.4-1.8,6.8c1.4,2.4,4.4,3.2,6.8,1.8C68.3,128.8,69.1,125.8,67.7,123.4z
	 M92.3,155.7l-5.6-10.4L74.9,145l-6.2,10l5.6,10.4l11.8,0.3L92.3,155.7z M101.8,182.5c-1.4-2.4-4.4-3.2-6.8-1.8
	c-2.4,1.4-3.2,4.4-1.8,6.8c1.4,2.4,4.4,3.2,6.8,1.8C102.4,187.9,103.2,184.8,101.8,182.5z M100,121.6c-2.4-1.4-5.4-0.6-6.8,1.8
	c-1.4,2.4-0.6,5.4,1.8,6.8c2.4,1.4,5.4,0.6,6.8-1.8C103.2,126,102.4,123,100,121.6z M119.5,155.4c0-2.7-2.2-5-5-5c-2.7,0-5,2.2-5,5
	c0,2.7,2.2,5,5,5C117.3,160.4,119.5,158.2,119.5,155.4z M217.1,59.1l-56.8,98.3c-1,43.2-36.4,77.9-79.8,77.9
	c-44.1,0-79.9-35.8-79.9-79.9c0-44.1,35.8-79.9,79.9-79.9c37,0,68.2,25.2,77.2,59.4l42-73.4C185.1,59.3,174,46.8,174,31.6
	c0-16.7,13.6-30.3,30.3-30.3c16.7,0,30.3,13.6,30.3,30.3C234.6,43.8,227.4,54.2,217.1,59.1z M198.4,41.8h11.8l5.9-10.2l-5.9-10.2
	h-11.8l-5.9,10.2L198.4,41.8z M142,155.4c0-33.9-27.6-61.5-61.5-61.5c-33.9,0-61.5,27.6-61.5,61.5c0,33.9,27.6,61.5,61.5,61.5
	C114.4,217,142,189.3,142,155.4z"/>
</svg>
