<?xml version="1.0" encoding="utf-8"?>
<!-- Generator: Adobe Illustrator 27.0.0, SVG Export Plug-In . SVG Version: 6.00 Build 0)  -->
<svg version="1.1" id="Vrstva_1" xmlns="http://www.w3.org/2000/svg" xmlns:xlink="http://www.w3.org/1999/xlink" x="0px" y="0px"
	 viewBox="0 0 235.7 236.1" style="enable-background:new 0 0 235.7 236.1;" xml:space="preserve">
<style type="text/css">
	.st0{fill:#C9C9C9;}
</style>
<path class="st0" d="M161.4,36.2l-55.2,33.3c-6.5-2-13.4-3.2-20.5-3.7L163,19.2c-1.2,3.9-1.8,8.1-1.8,12.4
	C161.2,33.1,161.3,34.7,161.4,36.2z M136.3,155.4c0,30.8-25,55.8-55.8,55.8s-55.8-25-55.8-55.8s25-55.8,55.8-55.8
	S136.3,124.6,136.3,155.4z M51.4,155.4c0-2.7-2.2-5-5-5c-2.7,0-5,2.2-5,5c0,2.7,2.2,5,5,5C49.1,160.4,51.4,158.2,51.4,155.4z
	 M65.9,180.6c-2.4-1.4-5.4-0.6-6.8,1.8c-1.4,2.4-0.6,5.4,1.8,6.8c2.4,1.4,5.4,0.6,6.8-1.8C69.1,185,68.3,182,65.9,180.6z
	 M67.7,123.4c-1.4-2.4-4.4-3.2-6.8-1.8c-2.4,1.4-3.2,4.4-1.8,6.8s4.4,3.2,6.8,1.8S69.1,125.8,67.7,123.4z M92.3,155.7l-5.6-10.4
	L74.9,145l-6.2,10l5.6,10.4l11.8,0.3L92.3,155.7z M101.8,182.5c-1.4-2.4-4.4-3.2-6.8-1.8s-3.2,4.4-1.8,6.8c1.4,2.4,4.4,3.2,6.8,1.8
	C102.4,187.9,103.2,184.8,101.8,182.5z M100,121.6c-2.4-1.4-5.4-0.6-6.8,1.8s-0.6,5.4,1.8,6.8s5.4,0.6,6.8-1.8
	C103.2,126,102.4,123,100,121.6z M119.5,155.4c0-2.7-2.2-5-5-5c-2.7,0-5,2.2-5,5c0,2.7,2.2,5,5,5S119.5,158.2,119.5,155.4z
	 M217.1,59.1l-56.8,98.3c-1,43.2-36.4,77.9-79.8,77.9c-44.1,0-79.9-35.8-79.9-79.9s35.8-79.9,79.9-79.9c37,0,68.2,25.2,77.2,59.4
	l42-73.4C185.1,59.3,174,46.8,174,31.6c0-16.7,13.6-30.3,30.3-30.3s30.3,13.6,30.3,30.3C234.6,43.8,227.4,54.2,217.1,59.1z
	 M198.4,41.8h11.8l5.9-10.2l-5.9-10.2h-11.8l-5.9,10.2L198.4,41.8z M142,155.4c0-33.9-27.6-61.5-61.5-61.5S19,121.5,19,155.4
	s27.6,61.5,61.5,61.5C114.4,217,142,189.3,142,155.4z"/>
</svg>
